<svg xmlns="http://www.w3.org/2000/svg" width="23" height="24" viewBox="0 0 23 24" fill="currentColor">
    <path d="M22.6592 7.19837C22.657 5.28991 21.8937 3.46023 20.5366 2.11074C19.1796 0.761253 17.3397 0.00216061 15.4205 0H0.65918V5.06122C1.16982 5.06129 1.67898 5.11602 2.17784 5.22449C3.26854 5.46585 4.28641 5.96025 5.14838 6.66732C6.01035 7.37439 6.692 8.27411 7.13769 9.29306C7.1656 9.3551 7.19187 9.41878 7.21649 9.48245C7.54983 10.3088 7.72039 11.1912 7.71888 12.0816C7.72011 12.9131 7.57165 13.7381 7.28052 14.5175C7.25754 14.5812 7.23291 14.6449 7.20664 14.7069C6.81608 15.6654 6.21828 16.5268 5.45563 17.2299C4.69297 17.933 3.78412 18.4607 2.79351 18.7755C2.1033 18.9933 1.38331 19.1035 0.65918 19.102V24H15.4205C17.3397 23.9978 19.1796 23.2387 20.5366 21.8893C21.8937 20.5398 22.657 18.7101 22.6592 16.8016V16.6824C22.6609 14.9643 22.0421 13.3027 20.9156 12C22.0421 10.6973 22.6609 9.03569 22.6592 7.31755V7.19837ZM17.4054 16.8016C17.4046 17.3249 17.1952 17.8264 16.8231 18.1964C16.4511 18.5664 15.9467 18.7746 15.4205 18.7755H10.569C11.4159 17.5434 12.0204 16.1629 12.3504 14.7069H15.4205C15.947 14.7078 16.4516 14.9163 16.8237 15.2866C17.1958 15.6569 17.405 16.1589 17.4054 16.6824V16.8016ZM17.4054 7.31755C17.405 7.84107 17.1958 8.34306 16.8237 8.7134C16.4516 9.08374 15.947 9.29219 15.4205 9.29306H12.3159C11.9607 7.83189 11.3295 6.45119 10.4557 5.22449H15.4205C15.9467 5.22535 16.4511 5.43359 16.8231 5.80358C17.1952 6.17357 17.4046 6.67513 17.4054 7.19837V7.31755Z" />
</svg>