<svg t="1635015613497" class="icon" viewBox="0 0 1024 1024" version="1.1" xmlns="http://www.w3.org/2000/svg" p-id="3097" width="28" height="28" fill="currentColor">
    <path d="M508.96331 509.492966m-494.344827 0a494.344828 494.344828 0 1 0 988.689655 0 494.344828 494.344828 0 1 0-988.689655 0Z"  fill-opacity=".04" p-id="3098" data-spm-anchor-id="a313x.7781069.0.i16" class=""></path>
    <path d="M702.887724 387.495724a52.647724 52.647724 0 1 0-74.469517-74.469517l-120.726069 120.761379-120.690759-120.761379a52.647724 52.647724 0 0 0-74.504827 74.504827l120.761379 120.690759-120.761379 120.726069a52.647724 52.647724 0 1 0 74.504827 74.434207l120.690759-120.690759 120.761379 120.726069a52.647724 52.647724 0 0 0 74.434207-74.504827l-120.726069-120.690759 120.726069-120.726069z"  fill-opacity=".6" p-id="3099" data-spm-anchor-id="a313x.7781069.0.i17" class="selected"></path>
</svg>