<svg viewBox="0 0 1024 1024" version="1.1" xmlns="http://www.w3.org/2000/svg" p-id="832" width="14" height="14">
    <path d="M592.749714 969.142857h-457.142857A88.429714 88.429714 0 0 1 44.178286 877.714286V420.571429a88.429714 88.429714 0 0 1 91.428571-91.428572h182.857143V146.285714A88.429714 88.429714 0 0 1 409.892571 54.857143h457.142858A88.429714 88.429714 0 0 1 958.464 146.285714v457.142857a88.502857 88.502857 0 0 1-91.428571 91.428572h-182.857143V877.714286a88.502857 88.502857 0 0 1-91.428572 91.428571z m-457.142857-548.571428V877.714286h457.142857V694.857143h-182.857143a88.502857 88.502857 0 0 1-91.428571-91.428572v-182.857142h-182.857143zM409.892571 146.285714v457.142857h457.142858V146.285714h-457.142858z" fill="#0c5198" p-id="833"></path>
</svg>