<svg  viewBox="0 0 1024 1024" version="1.1" xmlns="http://www.w3.org/2000/svg" width="16" height="16" fill="currentColor">
    <path d="M512 1024a512.57568 512.57568 0 0 1-511.99968-511.99968v-10.239994A511.99968 511.99968 0 1 1 512 1024z m-0.831999-102.399936H512a409.599744 409.599744 0 1 0-0.831999 0z m52.031967-102.399936H460.800032v-102.399936h102.399936v102.399936z m0-153.599904H460.800032a183.423885 183.423885 0 0 1 90.623943-162.687898c33.791979-25.919984 62.975961-48.25597 62.975961-93.311942a102.399936 102.399936 0 1 0-204.799872 0H307.200128v-4.607997a204.799872 204.799872 0 1 1 409.599744 4.607997 174.719891 174.719891 0 0 1-79.87195 135.423915A158.719901 158.719901 0 0 0 563.199968 665.600224z" ></path>
</svg>