<svg width="26" height="26" viewBox="0 0 26 26" fill="none" xmlns="http://www.w3.org/2000/svg">
<g clip-path="url(#clip0_198:1105)">
<path d="M7.99658 22.0361L11.2487 22.8989V21.7706L11.5141 21.5051H13.3725V23.7616H11.3814L8.92573 22.6998L7.99658 22.0361Z" fill="#CDBDB2"/>
<path d="M18.6156 22.0361L15.4299 22.8989V21.7706L15.1645 21.5051H13.3062V23.7616H15.2972L17.7527 22.6998L18.6156 22.0361Z" fill="#CDBDB2"/>
<path d="M11.5145 19.5809L11.249 21.771L11.5808 21.5055H15.0319L15.4301 21.771L15.1647 19.5809L14.6337 19.249L11.979 19.3154L11.5145 19.5809Z" fill="#171717"/>
<path d="M9.72217 4.78027L11.315 8.49688L12.0451 19.3149H14.6334L15.4298 8.49688L16.8899 4.78027H9.72217Z" fill="#F6851B"/>
<path d="M2.75332 12.9439L0.89502 18.3197L5.54078 18.0542H8.52728V15.7314L8.39455 10.9529L7.73087 11.4838L2.75332 12.9439Z" fill="#F6851B"/>
<path d="M6.271 13.5415L11.7132 13.6742L11.1159 16.4617L8.52751 15.798L6.271 13.5415Z" fill="#CD6115"/>
<path d="M6.271 13.6077L8.52751 15.7314V17.8552L6.271 13.6077Z" fill="#E47520"/>
<path d="M8.52734 15.7976L11.1821 16.4613L12.0449 19.3152L11.4475 19.647L8.52734 17.9214V15.7976Z" fill="#F6851B"/>
<path d="M8.52753 17.9216L7.99658 22.0364L11.5141 19.5809L8.52753 17.9216Z" fill="#E4761A"/>
<path d="M11.713 13.6741L12.0449 19.3154L11.0493 16.4284L11.713 13.6741Z" fill="#E47520"/>
<path d="M5.47461 17.9881L8.52754 17.9216L7.99659 22.0364L5.47461 17.9881Z" fill="#CD6115"/>
<path d="M2.35512 23.8284L7.99634 22.0364L5.47435 17.988L0.89502 18.3198L2.35512 23.8284Z" fill="#E4761A"/>
<path d="M11.315 8.49731L8.4612 10.8866L6.271 13.5413L11.7132 13.7404L11.315 8.49731Z" fill="#E4761A"/>
<path d="M7.99658 22.0366L11.5141 19.5811L11.2487 21.7048V22.8995L8.85943 22.4348L7.99658 22.0366ZM18.6155 22.0366L15.1643 19.5811L15.4298 21.7048V22.8995L17.819 22.4348L18.6155 22.0366Z" fill="#DFCEC3"/>
<path d="M10.2533 14.8689L10.9834 16.3954L8.39502 15.7317L10.2533 14.8689Z" fill="#243447"/>
<path d="M2.28857 1.66138L11.3146 8.49722L9.78822 4.78061L2.28857 1.66138Z" fill="#E4761A"/>
<path d="M2.28837 1.66138L1.09375 5.31156L1.75743 9.29364L1.29291 9.55911L1.95659 10.1565L1.42565 10.621L2.15564 11.2847L1.69112 11.6829L2.75301 13.0102L7.73055 11.4838C10.164 9.53705 11.3587 8.54147 11.3144 8.49722C11.2702 8.45298 8.2615 6.1744 2.28837 1.66138Z" fill="#763D16"/>
<path d="M23.8579 12.9439L25.7162 18.3197L21.0705 18.0542H18.084V15.7314L18.2167 10.9529L18.8804 11.4838L23.8579 12.9439Z" fill="#F6851B"/>
<path d="M20.3411 13.5415L14.8989 13.6742L15.4962 16.4617L18.0846 15.798L20.3411 13.5415Z" fill="#CD6115"/>
<path d="M20.3405 13.6077L18.084 15.7314V17.8552L20.3405 13.6077Z" fill="#E47520"/>
<path d="M18.084 15.7976L15.4293 16.4613L14.5664 19.3152L15.1638 19.647L18.084 17.9214V15.7976Z" fill="#F6851B"/>
<path d="M18.0843 17.9216L18.6152 22.0364L15.1641 19.6472L18.0843 17.9216Z" fill="#E4761A"/>
<path d="M14.8983 13.6741L14.5664 19.3154L15.562 16.4284L14.8983 13.6741Z" fill="#E47520"/>
<path d="M21.1369 17.9881L18.084 17.9216L18.6149 22.0364L21.1369 17.9881Z" fill="#CD6115"/>
<path d="M24.2565 23.8284L18.6152 22.0364L21.1372 17.988L25.7166 18.3198L24.2565 23.8284Z" fill="#E4761A"/>
<path d="M15.2971 8.49731L18.1509 10.8866L20.3411 13.5413L14.8989 13.7404L15.2971 8.49731Z" fill="#E4761A"/>
<path d="M16.3585 14.8689L15.6284 16.3954L18.2168 15.7317L16.3585 14.8689Z" fill="#243447"/>
<path d="M24.3229 1.66138L15.2969 8.49722L16.8233 4.78061L24.3229 1.66138Z" fill="#E4761A"/>
<path d="M24.3231 1.66138L25.5178 5.31156L24.8541 9.29364L25.3186 9.55911L24.6549 10.1565L25.1859 10.621L24.4559 11.2847L24.9204 11.6829L23.8585 13.0102L18.881 11.4838C16.4475 9.53705 15.2528 8.54147 15.2971 8.49722C15.3413 8.45298 18.35 6.1744 24.3231 1.66138Z" fill="#763D16"/>
</g>
<defs>
<clipPath id="clip0_198:1105">
<rect x="0.828613" y="0.244873" width="25" height="25" fill="white"/>
</clipPath>
</defs>
</svg>
