<svg t="1636890358193" class="icon" viewBox="0 0 1024 1024" version="1.1" xmlns="http://www.w3.org/2000/svg" p-id="4641" width="15" height="15" fill="currentColor">
    <path d="M512 309.894737a202.105263 202.105263 0 0 0-202.105263 202.105263 40.421053 40.421053 0 0 1-80.842105 0c0-156.267789 126.679579-282.947368 282.947368-282.947368 66.155789 0 127.002947 22.716632 175.157895 60.739368V269.473684a40.421053 40.421053 0 0 1 80.842105 0v107.789474a40.421053 40.421053 0 0 1-40.421053 40.421053h-107.789473a40.421053 40.421053 0 0 1-6.090106-80.384A201.135158 201.135158 0 0 0 512 309.894737z m242.526316 161.68421a40.421053 40.421053 0 0 1 40.421052 40.421053c0 156.267789-126.679579 282.947368-282.947368 282.947368-66.155789 0-127.002947-22.716632-175.157895-60.712421V754.526316a40.421053 40.421053 0 0 1-80.842105 0v-107.789474a40.421053 40.421053 0 0 1 40.421053-40.421053h107.789473a40.421053 40.421053 0 0 1 6.090106 80.384A202.105263 202.105263 0 0 0 714.105263 512a40.421053 40.421053 0 0 1 40.421053-40.421053z"  p-id="4642"></path>
</svg>