<svg width="17" height="16" viewBox="0 0 17 16" fill="0c5198" xmlns="http://www.w3.org/2000/svg">
    <path fill-rule="evenodd" clip-rule="evenodd" d="M8.42969 2C5.11598 2 2.42969 4.68629 2.42969 8C2.42969 11.3137 5.11598 14 8.42969 14C11.7434 14 14.4297 11.3137 14.4297 8C14.4297 7.44772 14.8774 7 15.4297 7C15.982 7 16.4297 7.44772 16.4297 8C16.4297 12.4183 12.848 16 8.42969 16C4.01141 16 0.429688 12.4183 0.429688 8C0.429688 3.58172 4.01141 0 8.42969 0C8.98197 0 9.42969 0.447715 9.42969 1C9.42969 1.55228 8.98197 2 8.42969 2Z" />
</svg>